<?xml version="1.0" encoding="UTF-8" standalone="no"?>
<!-- Created with Inkscape (http://www.inkscape.org/) -->
<svg
   xmlns:dc="http://purl.org/dc/elements/1.1/"
   xmlns:cc="http://web.resource.org/cc/"
   xmlns:rdf="http://www.w3.org/1999/02/22-rdf-syntax-ns#"
   xmlns:svg="http://www.w3.org/2000/svg"
   xmlns="http://www.w3.org/2000/svg"
   xmlns:xlink="http://www.w3.org/1999/xlink"
   xmlns:sodipodi="http://inkscape.sourceforge.net/DTD/sodipodi-0.dtd"
   xmlns:inkscape="http://www.inkscape.org/namespaces/inkscape"
   width="210mm"
   height="297mm"
   id="svg2"
   sodipodi:version="0.32"
   inkscape:version="0.43"
   sodipodi:docbase="/home/guigoz/moi/downloads"
   sodipodi:docname="alchemist-logo2.svg">
  <defs
     id="defs4" />
  <sodipodi:namedview
     id="base"
     pagecolor="#ffffff"
     bordercolor="#666666"
     borderopacity="1.0"
     inkscape:pageopacity="0.0"
     inkscape:pageshadow="2"
     inkscape:zoom="0.24748737"
     inkscape:cx="1638.0653"
     inkscape:cy="-108.07656"
     inkscape:document-units="px"
     inkscape:current-layer="layer1"
     showguides="true"
     inkscape:guide-bbox="true"
     inkscape:window-width="1268"
     inkscape:window-height="947"
     inkscape:window-x="0"
     inkscape:window-y="0" />
  <metadata
     id="metadata7">
    <rdf:RDF>
      <cc:Work
         rdf:about="">
        <dc:format>image/svg+xml</dc:format>
        <dc:type
           rdf:resource="http://purl.org/dc/dcmitype/StillImage" />
      </cc:Work>
    </rdf:RDF>
  </metadata>
  <g
     inkscape:label="Calque 1"
     inkscape:groupmode="layer"
     id="layer1">
    <path
       style="fill:#2d2d2d;fill-opacity:1;fill-rule:evenodd;stroke:#000000;stroke-width:4;stroke-linecap:butt;stroke-linejoin:miter;stroke-miterlimit:4;stroke-dasharray:none;stroke-opacity:1"
       d="M -2055.0628,-384.08103 L -2104.768,-280.07628 C -2117.8599,-260.29404 -2064.6986,-308.65798 -2057.8513,-336.5814 L -2055.0628,-384.08103 z "
       id="path11803"
       sodipodi:nodetypes="cccc" />
    <path
       style="fill:#383838;fill-opacity:1;fill-rule:evenodd;stroke:#000000;stroke-width:4;stroke-linecap:butt;stroke-linejoin:miter;stroke-miterlimit:4;stroke-dasharray:none;stroke-opacity:1"
       d="M -2051.1929,-525.33597 C -2053.7054,-556.3293 -1967.237,-571.07982 -1882.7849,-577.89049 C -1866.5727,-579.23649 -1868.617,-515.51743 -1868.3,-459.2612 C -1795.9609,-300.656 -1800.8912,-235.93372 -1820.5065,-203.55491 C -1914.4724,-126.01464 -1983.3105,-161.24532 -2061.9229,-185.92738 C -2096.4431,-197.63491 -2050.8211,-389.2209 -2048.1294,-424.84969 C -2048.9852,-468.55991 -2047.8364,-467.90431 -2051.1929,-525.33597 z "
       id="path1307"
       sodipodi:nodetypes="ccccccc" />
    <path
       sodipodi:type="arc"
       style="opacity:1;fill:#ffffff;fill-opacity:1;fill-rule:nonzero;stroke:#000000;stroke-width:4.66752863;stroke-linecap:butt;stroke-linejoin:miter;stroke-miterlimit:4;stroke-dasharray:none;stroke-dashoffset:0;stroke-opacity:1"
       id="path4803"
       sodipodi:cx="270.46835"
       sodipodi:cy="363.69067"
       sodipodi:rx="46.719555"
       sodipodi:ry="61.366768"
       d="M 317.18791 363.69067 A 46.719555 61.366768 0 1 1  223.7488,363.69067 A 46.719555 61.366768 0 1 1  317.18791 363.69067 z"
       transform="matrix(0.750151,5.250223e-2,-6.818743e-2,0.974261,-2181.209,-843.806)" />
    <path
       sodipodi:type="arc"
       style="opacity:1;fill:#ffffff;fill-opacity:1;fill-rule:nonzero;stroke:#000000;stroke-width:5.96842718;stroke-linecap:butt;stroke-linejoin:miter;stroke-miterlimit:4;stroke-dasharray:none;stroke-dashoffset:0;stroke-opacity:1"
       id="path5678"
       sodipodi:cx="270.46835"
       sodipodi:cy="363.69067"
       sodipodi:rx="46.719555"
       sodipodi:ry="61.366768"
       d="M 317.18791 363.69067 A 46.719555 61.366768 0 1 1  223.7488,363.69067 A 46.719555 61.366768 0 1 1  317.18791 363.69067 z"
       transform="matrix(0.625338,4.376673e-2,-5.002558e-2,0.714765,-2072.194,-719.7573)" />
    <path
       style="fill:#000000;fill-opacity:1;fill-rule:evenodd;stroke:#000000;stroke-width:4;stroke-linecap:butt;stroke-linejoin:miter;stroke-miterlimit:4;stroke-dasharray:none;stroke-opacity:1"
       d="M -1974.1709,-557.15774 L -1964.6602,-451.39357 L -2040.5028,-536.24279 L -1974.1709,-557.15774 z "
       id="path5680"
       sodipodi:nodetypes="cccc" />
    <path
       style="fill:#000000;fill-opacity:1;fill-rule:evenodd;stroke:#000000;stroke-width:4;stroke-linecap:butt;stroke-linejoin:miter;stroke-miterlimit:4;stroke-dasharray:none;stroke-opacity:1"
       d="M -1962.4296,-435.84626 L -1890.6512,-505.52474 L -1919.5799,-523.86681 L -1962.4296,-435.84626 z "
       id="path6555"
       sodipodi:nodetypes="cccc" />
    <path
       style="fill:#ffffff;fill-opacity:1;fill-rule:evenodd;stroke:#000000;stroke-width:4;stroke-linecap:butt;stroke-linejoin:miter;stroke-miterlimit:4;stroke-dasharray:none;stroke-opacity:1"
       d="M -2059.9893,-284.30037 C -2046.127,-328.27914 -2051.9878,-335.83902 -2018.9611,-365.36496 C -1985.8397,-398.16195 -1932.5054,-364.83162 -1920.4242,-348.13687 C -1897.6882,-315.16384 -1887.5799,-285.11165 -1879.9387,-252.82277 C -1873.2165,-216.78442 -1879.3737,-164.28229 -1891.9981,-158.85383 C -1950.19,-142.56643 -2011.7933,-141.50841 -2057.5816,-161.95961 C -2090.2196,-177.44395 -2069.9636,-246.49277 -2059.9893,-284.30037 z "
       id="path13551"
       sodipodi:nodetypes="ccccccc" />
    <path
       style="fill:#c67800;fill-opacity:1;fill-rule:evenodd;stroke:#000000;stroke-width:4;stroke-linecap:butt;stroke-linejoin:miter;stroke-miterlimit:4;stroke-dasharray:none;stroke-opacity:1"
       d="M -1983.3591,-414.05428 C -2000.558,-379.70343 -2004.2245,-353.5091 -2012.0801,-317.55879 C -1985.8092,-340.97332 -1960.1527,-364.75072 -1937.5108,-390.30873 C -1949.183,-403.73266 -1968.505,-405.18002 -1983.3591,-414.05428 z "
       id="path7430"
       sodipodi:nodetypes="cccc" />
    <path
       sodipodi:type="arc"
       style="opacity:1;fill:#ffffff;fill-opacity:1;fill-rule:nonzero;stroke:#000000;stroke-width:7.09745026;stroke-linecap:butt;stroke-linejoin:miter;stroke-miterlimit:4;stroke-dasharray:none;stroke-dashoffset:0;stroke-opacity:1"
       id="path8307"
       sodipodi:cx="265.17856"
       sodipodi:cy="373.79074"
       sodipodi:rx="9.8214283"
       sodipodi:ry="9.2857141"
       d="M 274.99999 373.79074 A 9.8214283 9.2857141 0 1 1  255.35713,373.79074 A 9.8214283 9.2857141 0 1 1  274.99999 373.79074 z"
       transform="matrix(0.471733,3.301607e-2,-4.689493e-2,0.670034,-2099.197,-692.4977)" />
    <path
       sodipodi:type="arc"
       style="opacity:1;fill:#ffffff;fill-opacity:1;fill-rule:nonzero;stroke:#000000;stroke-width:4;stroke-linecap:butt;stroke-linejoin:miter;stroke-miterlimit:4;stroke-dasharray:none;stroke-dashoffset:0;stroke-opacity:1"
       id="path9182"
       sodipodi:cx="332.85715"
       sodipodi:cy="379.68362"
       sodipodi:rx="4.6428571"
       sodipodi:ry="4.4642859"
       d="M 337.5 379.68362 A 4.6428571 4.4642859 0 1 1  328.21429,379.68362 A 4.6428571 4.4642859 0 1 1  337.5 379.68362 z"
       transform="matrix(0.99756,6.98181e-2,-6.98181e-2,0.99756,-2238.538,-822.9975)" />
    <path
       style="fill:#2b2b2b;fill-opacity:1;fill-rule:evenodd;stroke:#000000;stroke-width:4;stroke-linecap:butt;stroke-linejoin:miter;stroke-miterlimit:4;stroke-dasharray:none;stroke-opacity:1"
       d="M -1897.9363,-374.20117 C -1912.6723,-343.14811 -1913.4181,-310.28548 -1917.4642,-277.84973 C -1890.0863,-306.66233 -1858.1287,-332.02041 -1842.6747,-369.82716 C -1859.284,-373.54606 -1874.9359,-378.46003 -1897.9363,-374.20117 z "
       id="path15439"
       sodipodi:nodetypes="cccc" />
    <path
       style="fill:#383838;fill-opacity:1;fill-rule:evenodd;stroke:none;stroke-width:1px;stroke-linecap:butt;stroke-linejoin:miter;stroke-opacity:1"
       d="M -1977.6988,-431.54585 L -1981.0917,-426.81371 L -1988.9488,-418.77799 C -1979.1357,-399.8612 -1948.9627,-393.01145 -1934.7524,-388.42085 L -1929.4846,-391.81371 L -1977.6988,-431.54585 z "
       id="path17189"
       sodipodi:nodetypes="cccccc" />
    <image
       id="image18104"
       height="957"
       width="891"
       sodipodi:absref="/home/guigoz/moi/downloads/alchemist2.png"
       xlink:href="alchemist2.png"
       x="-1559.7858"
       y="-754.70929" />
    <path
       style="fill:#d19200;fill-opacity:1;fill-rule:evenodd;stroke:#000000;stroke-width:4;stroke-linecap:butt;stroke-linejoin:miter;stroke-miterlimit:4;stroke-dasharray:none;stroke-opacity:1"
       d="M 136.44493,841.88003 C 111.11018,869.59852 92.418671,873.3988 58.514511,920.70166 C 169.71791,939.33702 191.31404,924.50647 300.08965,911.58055 L 136.44493,841.88003 z "
       id="path39089"
       sodipodi:nodetypes="cccc"
       inkscape:export-filename="/home/guigoz/moi/downloads/test.png"
       inkscape:export-xdpi="90"
       inkscape:export-ydpi="90" />
    <path
       style="fill:#222222;fill-opacity:1;fill-rule:evenodd;stroke:#000000;stroke-width:4;stroke-linecap:butt;stroke-linejoin:miter;stroke-miterlimit:4;stroke-dasharray:none;stroke-opacity:1"
       d="M 182.10951,457.14831 C 127.18945,528.22807 106.51715,597.01568 60.273037,674.16861 C 54.82703,686.96479 57.090244,712.44304 144.55876,632.02575 L 182.10951,457.14831 z "
       id="path24234"
       sodipodi:nodetypes="cccc"
       inkscape:export-filename="/home/guigoz/moi/downloads/test.png"
       inkscape:export-xdpi="90"
       inkscape:export-ydpi="90" />
    <path
       style="fill:#2b2b2b;fill-opacity:1;fill-rule:evenodd;stroke:#000000;stroke-width:4;stroke-linecap:butt;stroke-linejoin:miter;stroke-miterlimit:4;stroke-dasharray:none;stroke-opacity:1"
       d="M 528.48732,282.02576 C 509.98525,203.92185 512.2386,50.668309 490.53981,51.654379 C 483.32836,52.221269 481.95235,60.374229 477.77304,64.882899 C 386.63625,81.502869 210.46529,163.02813 210.63018,169.8829 C 208.29636,238.95409 209.15112,307.83385 199.91589,373.45433 C 204.68502,439.82609 103.67743,595.46014 104.20161,747.74004 C 111.4425,830.68125 154.10881,880.49218 231.34446,904.8829 C 424.62051,937.42681 515.84043,948.45516 621.34446,840.59719 C 674.61726,768.35815 686.75145,724.49331 674.20161,660.59718 C 598.49175,538.63234 575.76743,407.54431 528.48732,282.02576 z "
       id="path18107"
       sodipodi:nodetypes="cccccccccc"
       inkscape:export-filename="/home/guigoz/moi/downloads/test.png"
       inkscape:export-xdpi="90"
       inkscape:export-ydpi="90" />
    <path
       style="fill:#ffffff;fill-opacity:1;fill-rule:evenodd;stroke:#000000;stroke-width:4;stroke-linecap:butt;stroke-linejoin:miter;stroke-miterlimit:4;stroke-dasharray:none;stroke-opacity:1"
       d="M 236.3757,515.97118 C 122.82597,636.22573 131.78761,732.54957 164.65486,834.16923 C 178.21825,867.38011 215.56947,893.59139 266.68027,907.91037 C 378.17791,919.98413 493.64394,917.44883 504.06612,875.58549 C 547.31677,683.47443 446.46816,555.60531 394.96964,504.8595 C 373.78562,488.5176 277.60962,481.75075 236.3757,515.97118 z "
       id="path18982"
       sodipodi:nodetypes="cccccc"
       inkscape:export-filename="/home/guigoz/moi/downloads/test.png"
       inkscape:export-xdpi="90"
       inkscape:export-ydpi="90" />
    <path
       style="fill:#87003c;fill-opacity:1;fill-rule:evenodd;stroke:none;stroke-width:1px;stroke-linecap:butt;stroke-linejoin:miter;stroke-opacity:1"
       d="M 324.5797,658.23372 L 457.39514,660.0978 L 556.19119,701.10749 L 561.3174,721.61234 L 547.80285,737.923 L 528.69606,737.923 L 324.5797,658.23372 z "
       id="path49658"
       sodipodi:nodetypes="ccccccc"
       inkscape:export-filename="/home/guigoz/moi/downloads/test.png"
       inkscape:export-xdpi="90"
       inkscape:export-ydpi="90" />
    <path
       style="fill:#004e81;fill-opacity:0.39465877;fill-rule:evenodd;stroke:#000000;stroke-width:4.1665864;stroke-linecap:butt;stroke-linejoin:miter;stroke-miterlimit:4;stroke-dasharray:none;stroke-opacity:1"
       d="M 301.46099,650.70122 L 531.71543,738.02166 C 559.11717,747.91406 571.47704,703.91446 548.47988,695.99652 L 318.32159,607.01515 L 324.94938,590.40054 C 328.76801,580.3164 310.11491,571.48769 305.69654,583.28674 L 275.99946,657.73141 C 270.39705,670.50634 289.82098,680.71769 295.54605,665.52883 L 301.46099,650.70122 z "
       id="path44416"
       sodipodi:nodetypes="ccccccccc"
       inkscape:export-filename="/home/guigoz/moi/downloads/test.png"
       inkscape:export-xdpi="90"
       inkscape:export-ydpi="90" />
    <path
       style="fill:#ffffff;fill-opacity:0.60237391;fill-rule:evenodd;stroke:none;stroke-width:1px;stroke-linecap:butt;stroke-linejoin:miter;stroke-opacity:1"
       d="M 323.16459,633.20159 L 533.80523,713.58986 C 539.17655,715.66142 535.69184,726.33358 529.14504,724.0753 L 318.0384,643.92002 C 312.35421,640.75606 314.34376,630.32951 323.16459,633.20159 z "
       id="path58398"
       sodipodi:nodetypes="ccccc"
       inkscape:export-filename="/home/guigoz/moi/downloads/test.png"
       inkscape:export-xdpi="90"
       inkscape:export-ydpi="90" />
    <path
       style="fill:#d19200;fill-opacity:1;fill-rule:evenodd;stroke:#000000;stroke-width:4;stroke-linecap:butt;stroke-linejoin:miter;stroke-miterlimit:4;stroke-dasharray:none;stroke-opacity:1"
       d="M 605.83899,855.63497 C 631.17374,883.35346 650.8754,887.65882 684.77956,934.96168 C 573.57616,953.59704 550.96988,938.26141 442.19427,925.33549 C 502.36538,909.79644 558.42525,888.63148 605.83899,855.63497 z "
       id="path38214"
       sodipodi:nodetypes="cccc"
       inkscape:export-filename="/home/guigoz/moi/downloads/test.png"
       inkscape:export-xdpi="90"
       inkscape:export-ydpi="90" />
    <path
       style="fill:#e1a200;fill-opacity:1;fill-rule:evenodd;stroke:#000000;stroke-width:4;stroke-linecap:butt;stroke-linejoin:miter;stroke-miterlimit:4;stroke-dasharray:none;stroke-opacity:1"
       d="M 319.2082,400.81379 C 301.55892,456.46752 278.03408,513.29636 272.74119,566.47881 C 313.61437,523.50932 350.44129,476.49358 388.90873,431.11837"
       id="path19857"
       sodipodi:nodetypes="ccc"
       inkscape:export-filename="/home/guigoz/moi/downloads/test.png"
       inkscape:export-xdpi="90"
       inkscape:export-ydpi="90" />
    <path
       style="fill:#ffffff;fill-opacity:1;fill-rule:evenodd;stroke:#000000;stroke-width:4;stroke-linecap:butt;stroke-linejoin:miter;stroke-miterlimit:4;stroke-dasharray:none;stroke-opacity:1"
       d="M 281.83256,186.66145 C 266.0732,184.10045 255.34583,195.13895 244.96199,203.32897 C 219.66994,238.44894 221.80562,391.92844 258.09398,398.28841 C 296.33172,402.49993 320.3568,363.57621 334.36049,297.77823 C 341.1778,239.16664 344.97175,183.23614 281.83256,186.66145 z "
       id="path20734"
       sodipodi:nodetypes="ccccc"
       inkscape:export-filename="/home/guigoz/moi/downloads/test.png"
       inkscape:export-xdpi="90"
       inkscape:export-ydpi="90" />
    <path
       style="fill:#ffffff;fill-opacity:1;fill-rule:evenodd;stroke:#000000;stroke-width:4;stroke-linecap:butt;stroke-linejoin:miter;stroke-miterlimit:4;stroke-dasharray:none;stroke-opacity:1"
       d="M 466.69047,268.48381 C 466.43093,238.43434 410.5424,220.07394 394.96964,264.94827 C 380.97421,303.58077 379.42672,426.61214 404.56609,426.06761 C 426.94752,437.09409 468.93764,368.01545 466.69047,268.48381 z "
       id="path21609"
       sodipodi:nodetypes="cccc"
       inkscape:export-filename="/home/guigoz/moi/downloads/test.png"
       inkscape:export-xdpi="90"
       inkscape:export-ydpi="90" />
    <path
       style="fill:#415579;fill-opacity:1;fill-rule:evenodd;stroke:#000000;stroke-width:4;stroke-linecap:butt;stroke-linejoin:miter;stroke-miterlimit:4;stroke-dasharray:none;stroke-opacity:1"
       d="M 288.5639,360.5219 C 281.53214,357.1819 277.97099,363.67532 274.92684,371.63357 C 272.45701,381.50882 270.61545,390.55589 275.43192,390.82647 C 279.75693,390.58636 283.94872,391.87816 289.57405,376.68434 C 291.27207,370.87296 294.56736,364.72881 288.5639,360.5219 z "
       id="path22484"
       sodipodi:nodetypes="ccccc"
       inkscape:export-filename="/home/guigoz/moi/downloads/test.png"
       inkscape:export-xdpi="90"
       inkscape:export-ydpi="90" />
    <path
       style="fill:#415579;fill-opacity:1;fill-rule:evenodd;stroke:#000000;stroke-width:4;stroke-linecap:butt;stroke-linejoin:miter;stroke-miterlimit:4;stroke-dasharray:none;stroke-opacity:1"
       d="M 407.03944,316.3745 C 403.50836,311.05118 398.00539,308.41418 393.90746,311.82882 C 387.2625,317.5267 384.65863,324.5716 384.05847,332.28441 C 384.40835,342.56189 393.35413,346.6232 397.94807,343.14355 C 404.58335,336.52762 412.67666,328.56189 407.03944,316.3745 z "
       id="path23359"
       sodipodi:nodetypes="ccccc"
       inkscape:export-filename="/home/guigoz/moi/downloads/test.png"
       inkscape:export-xdpi="90"
       inkscape:export-ydpi="90" />
    <path
       style="fill:#2b2b2b;fill-opacity:1;fill-rule:evenodd;stroke:#000000;stroke-width:4;stroke-linecap:butt;stroke-linejoin:miter;stroke-miterlimit:4;stroke-dasharray:none;stroke-opacity:1"
       d="M 468.48732,463.45433 C 424.59824,533.26722 390.05067,605.08185 372.77303,680.59719 C 359.48839,734.6741 484.2016,593.93052 539.91589,550.59719 L 539.91589,550.59719"
       id="path25109"
       sodipodi:nodetypes="cccc"
       inkscape:export-filename="/home/guigoz/moi/downloads/test.png"
       inkscape:export-xdpi="90"
       inkscape:export-ydpi="90" />
    <path
       style="fill:#000000;fill-opacity:1;fill-rule:evenodd;stroke:#000000;stroke-width:1px;stroke-linecap:butt;stroke-linejoin:miter;stroke-opacity:1"
       d="M 373.84446,255.95433 C 369.50486,227.77148 320.9032,136.53911 318.84446,137.74004 C 290.6828,140.18164 253.62563,171.39817 244.50364,187.16753 C 325.14905,177.82471 346.67156,261.24737 373.84446,255.95433 z "
       id="path25984"
       sodipodi:nodetypes="cccc"
       inkscape:export-filename="/home/guigoz/moi/downloads/test.png"
       inkscape:export-xdpi="90"
       inkscape:export-ydpi="90" />
    <path
       style="fill:#000000;fill-opacity:1;fill-rule:evenodd;stroke:#000000;stroke-width:1px;stroke-linecap:butt;stroke-linejoin:miter;stroke-opacity:1"
       d="M 460.27303,173.81147 C 433.93824,200.69602 411.92796,231.04018 390.27303,261.66861 C 379.86386,283.08971 455.10045,238.44121 506.70161,212.02576 C 500.09299,186.38937 487.73459,169.1163 460.27303,173.81147 z "
       id="path26859"
       sodipodi:nodetypes="cccc"
       inkscape:export-filename="/home/guigoz/moi/downloads/test.png"
       inkscape:export-xdpi="90"
       inkscape:export-ydpi="90" />
    <path
       style="fill:none;fill-opacity:0.75;fill-rule:evenodd;stroke:#000000;stroke-width:4;stroke-linecap:butt;stroke-linejoin:miter;stroke-miterlimit:4;stroke-dasharray:none;stroke-opacity:1"
       d="M 223.74879,385.6615 C 236.37864,421.98875 262.6759,420.54573 267.69042,415.96608"
       id="path34718"
       sodipodi:nodetypes="cc"
       inkscape:export-filename="/home/guigoz/moi/downloads/test.png"
       inkscape:export-xdpi="90"
       inkscape:export-ydpi="90" />
    <path
       style="fill:none;fill-opacity:0.75;fill-rule:evenodd;stroke:#000000;stroke-width:4;stroke-linecap:butt;stroke-linejoin:miter;stroke-miterlimit:4;stroke-dasharray:none;stroke-opacity:1"
       d="M 480.63018,355.24004 C 441.30535,443.60353 424.7967,438.62809 405.63018,444.52575"
       id="path35593"
       sodipodi:nodetypes="cc"
       inkscape:export-filename="/home/guigoz/moi/downloads/test.png"
       inkscape:export-xdpi="90"
       inkscape:export-ydpi="90" />
    <g
       id="g39151"
       inkscape:label="fiole"
       style="display:inline"
       transform="translate(-907.4192,681.0073)" />
    <g
       id="layer2"
       inkscape:label="fiole2"
       style="display:inline"
       transform="translate(-907.4192,681.0073)" />
    <path
       sodipodi:type="arc"
       style="fill:#83aacc;fill-opacity:0.83976261;fill-rule:evenodd;stroke:#000000;stroke-width:7.88467121;stroke-linejoin:round;stroke-miterlimit:4;stroke-dasharray:none;stroke-dashoffset:0;stroke-opacity:1"
       id="path4038"
       sodipodi:cx="347.95847"
       sodipodi:cy="631.28674"
       sodipodi:rx="240.89432"
       sodipodi:ry="240.89432"
       d="M 588.85278 631.28674 A 240.89432 240.89432 0 1 1  107.06415,631.28674 A 240.89432 240.89432 0 1 1  588.85278 631.28674 z"
       transform="matrix(0.417271,-0.288534,0.288534,0.417271,-77.76918,717.8511)"
       inkscape:export-filename="/home/guigoz/moi/downloads/test.png"
       inkscape:export-xdpi="90"
       inkscape:export-ydpi="90" />
    <path
       style="fill:#558700;fill-opacity:1;fill-rule:evenodd;stroke:none;stroke-width:5.5999999;stroke-linejoin:round;stroke-miterlimit:4;stroke-dasharray:5.6, 22.4;stroke-dashoffset:0;stroke-opacity:1"
       d="M 129.11786,874.4231 C 128.9698,877.11145 128.9018,879.82485 128.93513,882.55634 C 129.74391,948.82779 184.5118,1001.9667 251.17754,1001.1627 C 317.84329,1000.3588 371.28263,945.91492 370.47394,879.64347 C 370.4406,876.91219 370.32204,874.20065 370.10842,871.51686 L 129.11786,874.4231 z "
       id="path8409"
       inkscape:export-filename="/home/guigoz/moi/downloads/test.png"
       inkscape:export-xdpi="90"
       inkscape:export-ydpi="90" />
    <path
       sodipodi:type="arc"
       style="fill:#6c941c;fill-opacity:1;fill-rule:evenodd;stroke:none;stroke-width:5.5999999;stroke-linejoin:round;stroke-miterlimit:4;stroke-dasharray:5.6, 22.4;stroke-dashoffset:0;stroke-opacity:1"
       id="path9299"
       sodipodi:cx="349.26413"
       sodipodi:cy="559.4754"
       sodipodi:rx="243.50565"
       sodipodi:ry="42.43396"
       d="M 592.76978 559.4754 A 243.50565 42.43396 0 1 1  105.75848,559.4754 A 243.50565 42.43396 0 1 1  592.76978 559.4754 z"
       transform="matrix(0.493769,-6.088025e-3,8.756306e-3,0.733599,72.29567,464.1101)"
       inkscape:export-filename="/home/guigoz/moi/downloads/test.png"
       inkscape:export-xdpi="90"
       inkscape:export-ydpi="90" />
    <path
       style="fill:none;fill-opacity:0.75;fill-rule:evenodd;stroke:#000000;stroke-width:4;stroke-linecap:butt;stroke-linejoin:miter;stroke-miterlimit:4;stroke-dasharray:none;stroke-opacity:1"
       d="M 209.91589,774.70433 C 242.5671,763.06795 274.00679,766.62565 291.52303,777.56147"
       id="path48783"
       sodipodi:nodetypes="cc"
       inkscape:export-filename="/home/guigoz/moi/downloads/test.png"
       inkscape:export-xdpi="90"
       inkscape:export-ydpi="90" />
    <path
       style="fill:#6f9cc5;fill-opacity:0.86646884;fill-rule:evenodd;stroke:#000000;stroke-width:4;stroke-linejoin:round;stroke-miterlimit:4;stroke-dasharray:none;stroke-dashoffset:0;stroke-opacity:1"
       d="M 209.56948,732.78291 L 207.55083,772.65075 C 207.25897,778.41376 225.59658,784.10827 248.66099,785.41365 C 271.72533,786.71905 290.52852,783.12985 290.82046,777.36686 L 292.93445,735.60203 C 282.01415,738.14762 268.6101,739.52855 254.07818,739.28308 C 237.18302,738.99772 221.62341,736.57174 209.56948,732.78291 z "
       id="rect17190"
       inkscape:export-filename="/home/guigoz/moi/downloads/test.png"
       inkscape:export-xdpi="90"
       inkscape:export-ydpi="90" />
    <path
       transform="matrix(0.536157,9.056263e-3,2.581983e-2,0.553188,57.81637,605.962)"
       d="M 483.0943 194.54338 A 126.64905 43.086788 0 1 1  229.7962,194.54338 A 126.64905 43.086788 0 1 1  483.0943 194.54338 z"
       sodipodi:ry="43.086788"
       sodipodi:rx="126.64905"
       sodipodi:cy="194.54338"
       sodipodi:cx="356.44525"
       id="path19823"
       style="fill:#83aacc;fill-opacity:1;fill-rule:evenodd;stroke:none;stroke-width:5.5999999;stroke-linejoin:round;stroke-miterlimit:4;stroke-dasharray:5.6, 22.4;stroke-dashoffset:0;stroke-opacity:1"
       sodipodi:type="arc"
       inkscape:export-filename="/home/guigoz/moi/downloads/test.png"
       inkscape:export-xdpi="90"
       inkscape:export-ydpi="90" />
    <path
       sodipodi:type="arc"
       style="fill:#83aacc;fill-opacity:1;fill-rule:evenodd;stroke:#000000;stroke-width:7.3476572;stroke-linejoin:round;stroke-miterlimit:4;stroke-dasharray:none;stroke-dashoffset:0;stroke-opacity:1"
       id="path21589"
       sodipodi:cx="356.44525"
       sodipodi:cy="194.54338"
       sodipodi:rx="126.64905"
       sodipodi:ry="43.086788"
       d="M 483.0943 194.54338 A 126.64905 43.086788 0 1 1  229.7962,194.54338 A 126.64905 43.086788 0 1 1  483.0943 194.54338 z"
       transform="matrix(0.536157,9.056263e-3,2.581983e-2,0.553188,57.81637,605.962)"
       inkscape:export-filename="/home/guigoz/moi/downloads/test.png"
       inkscape:export-xdpi="90"
       inkscape:export-ydpi="90" />
    <path
       transform="matrix(0.336659,1.120556e-2,-2.882471e-2,0.277687,140.2117,657.7597)"
       d="M 483.0943 194.54338 A 126.64905 43.086788 0 1 1  229.7962,194.54338 A 126.64905 43.086788 0 1 1  483.0943 194.54338 z"
       sodipodi:ry="43.086788"
       sodipodi:rx="126.64905"
       sodipodi:cy="194.54338"
       sodipodi:cx="356.44525"
       id="path21591"
       style="fill:#4577a2;fill-opacity:1;fill-rule:evenodd;stroke:none;stroke-width:5.5999999;stroke-linejoin:round;stroke-miterlimit:4;stroke-dasharray:5.6, 22.4;stroke-dashoffset:0;stroke-opacity:1"
       sodipodi:type="arc"
       inkscape:export-filename="/home/guigoz/moi/downloads/test.png"
       inkscape:export-xdpi="90"
       inkscape:export-ydpi="90" />
    <path
       style="fill:#ffffff;fill-opacity:0.56973297;fill-rule:evenodd;stroke:none;stroke-width:1px;stroke-linecap:butt;stroke-linejoin:miter;stroke-opacity:1"
       d="M 604.5763,872.04995 C 622.99807,882.21384 641.31116,901.88465 653.06362,916.49667 C 634.76891,910.77082 598.35129,892.5641 575.28187,889.22255 C 585.71262,881.68027 595.75985,877.58943 604.5763,872.04995 z "
       id="path54025"
       sodipodi:nodetypes="cccc"
       inkscape:export-filename="/home/guigoz/moi/downloads/test.png"
       inkscape:export-xdpi="90"
       inkscape:export-ydpi="90" />
    <path
       style="fill:#ffffff;fill-opacity:0.64094956;fill-rule:evenodd;stroke:none;stroke-width:1px;stroke-linecap:butt;stroke-linejoin:miter;stroke-opacity:1"
       d="M 105.05587,878.11087 L 76.266517,910.43575 L 117.68277,891.24285 L 105.05587,878.11087 z "
       id="path55773"
       inkscape:export-filename="/home/guigoz/moi/downloads/test.png"
       inkscape:export-xdpi="90"
       inkscape:export-ydpi="90" />
    <path
       style="fill:#ffffff;fill-opacity:0.63204747;fill-rule:evenodd;stroke:none;stroke-width:1px;stroke-linecap:butt;stroke-linejoin:miter;stroke-opacity:1"
       d="M 250.51783,156.35687 C 239.69037,161.7802 226.5394,165.80941 218.69802,173.02439 C 215.42651,187.50324 216.54978,201.9821 215.66757,216.46095 C 219.13526,204.17076 220.38807,191.88057 226.27417,179.59038 C 231.41115,170.66818 242.35481,164.06865 250.51783,156.35687 z "
       id="path57523"
       sodipodi:nodetypes="ccccc"
       inkscape:export-filename="/home/guigoz/moi/downloads/test.png"
       inkscape:export-xdpi="90"
       inkscape:export-ydpi="90" />
    <path
       style="fill:#ffffff;fill-opacity:0.53709197;fill-rule:evenodd;stroke:none;stroke-width:1px;stroke-linecap:butt;stroke-linejoin:miter;stroke-opacity:1"
       d="M 321.78572,420.93361 C 309.07175,455.96927 295.6725,503.61914 285.80095,538.18107 C 300.81433,506.00299 331.07274,462.99156 348.92549,431.75993 C 353.11308,424.46756 325.92407,410.08711 321.78572,420.93361 z "
       id="path59273"
       sodipodi:nodetypes="cccc"
       inkscape:export-filename="/home/guigoz/moi/downloads/test.png"
       inkscape:export-xdpi="90"
       inkscape:export-ydpi="90" />
    <path
       style="fill:#ffffff;fill-opacity:0.48664688;fill-rule:evenodd;stroke:none;stroke-width:1px;stroke-linecap:butt;stroke-linejoin:miter;stroke-opacity:1"
       d="M 210.08074,784.11435 C 137.3716,818.7073 127.33768,922.82669 176.68774,960.44805 C 166.48363,935.62369 153.59558,895.84992 159.47,877.35293 C 169.13109,829.15654 192.27333,797.51268 210.08074,784.11435 z "
       id="path61021"
       sodipodi:nodetypes="cccc"
       inkscape:export-filename="/home/guigoz/moi/downloads/test.png"
       inkscape:export-xdpi="90"
       inkscape:export-ydpi="90" />
  </g>
</svg>
